<?xml version="1.0" encoding="utf-8"?>
<!-- Generator: Adobe Illustrator 23.1.1, SVG Export Plug-In . SVG Version: 6.00 Build 0)  -->
<svg version="1.1" id="close_button" xmlns="http://www.w3.org/2000/svg" xmlns:xlink="http://www.w3.org/1999/xlink" x="0px"
	 y="0px" viewBox="0 0 24.5 24.5" style="enable-background:new 0 0 24.5 24.5;" xml:space="preserve">
<path d="M14,12.2l3.7-3.7c0.5-0.5,0.5-1.3,0-1.7s-1.3-0.5-1.7,0l-3.7,3.7L8.6,6.8c-0.5-0.5-1.3-0.5-1.7,0s-0.5,1.3,0,1.7l3.7,3.7
	l-3.7,3.7c-0.5,0.5-0.5,1.3,0,1.7s1.3,0.5,1.7,0l3.7-3.7l3.7,3.7c0.5,0.5,1.3,0.5,1.7,0s0.5-1.3,0-1.7L14,12.2z"/>
</svg>
