<?xml version="1.0" encoding="utf-8"?>
<!-- Generator: Adobe Illustrator 23.1.1, SVG Export Plug-In . SVG Version: 6.00 Build 0)  -->
<svg version="1.1" id="Camada_1" xmlns="http://www.w3.org/2000/svg" xmlns:xlink="http://www.w3.org/1999/xlink" x="0px" y="0px"
	 viewBox="0 0 24.5 24.5" style="enable-background:new 0 0 24.5 24.5;" xml:space="preserve">
<style type="text/css">
	.st0{fill:#1878C9;}
	.st1{fill:#FFFFFF;}
</style>
<g id="Grupo_230" transform="translate(-317 -944)">
	<circle id="Elipse_9" class="st0" cx="329.2" cy="956.2" r="5.8"/>
	<path id="Caminho_49" class="st1" d="M330.1,958.6c0,0.3,0.3,0.4,0.8,0.4v0.5h-3V959c0.6,0,0.8-0.1,0.8-0.4v-2.9
		c0-0.3-0.3-0.4-0.8-0.4v-0.5h2.1V958.6z M330.2,953.1c0,0.2-0.1,0.4-0.2,0.6c-0.1,0.2-0.4,0.3-0.6,0.2c-0.1,0-0.2,0-0.3-0.1
		c-0.1,0-0.2-0.1-0.3-0.2c-0.1-0.1-0.1-0.2-0.2-0.3c0-0.1-0.1-0.2-0.1-0.3c0-0.2,0.1-0.4,0.2-0.6c0.2-0.2,0.4-0.2,0.6-0.2
		c0.2,0,0.4,0.1,0.6,0.2C330.1,952.7,330.2,952.9,330.2,953.1L330.2,953.1z"/>
</g>
</svg>
