<?xml version="1.0" encoding="utf-8"?>
<!-- Generator: Adobe Illustrator 23.1.1, SVG Export Plug-In . SVG Version: 6.00 Build 0)  -->
<svg version="1.1" id="Camada_1" xmlns="http://www.w3.org/2000/svg" xmlns:xlink="http://www.w3.org/1999/xlink" x="0px" y="0px"
	 viewBox="0 0 24.5 24.5" style="enable-background:new 0 0 24.5 24.5;" xml:space="preserve">
<g>
	<g>
		<path d="M18.3,2.8c-1.2-1.4-2.8-2.4-4.6-2.7C13.3,0,12.8,0,12.3,0c0,0,0,0,0,0c0,0,0,0,0,0c-0.5,0-1,0-1.4,0.1
			C8.9,0.4,7.3,1.4,6.2,2.8c-1.4,1.6-2,3.7-1.8,5.9c0.1,0.9,0.4,1.9,0.8,2.7c0.5,1,1.2,1.9,2.1,2.6c0.3,0.3,0.5,0.7,0.5,1.1v1.2
			C7.7,17.1,8.2,17.8,9,18c0.3,0.1,0.6,0.1,0.9,0.1l2.4,0l2.4,0c0.3,0,0.6,0,0.9-0.1c0.7-0.2,1.2-0.9,1.2-1.6v-1.2
			c0-0.4,0.2-0.9,0.5-1.1c0.9-0.7,1.6-1.6,2.1-2.6c0.4-0.9,0.7-1.8,0.8-2.7C20.4,6.6,19.7,4.4,18.3,2.8z M18.4,8.5
			c-0.1,0.7-0.3,1.5-0.6,2.1c-0.4,0.8-1,1.5-1.6,2c-0.8,0.6-1.2,1.6-1.2,2.6l0,1.1c-0.4,0-1.1,0-1.1,0c0.6-1.6-0.7-1.4-0.5-2.6
			c0,0,0,0,0,0c0,0,0,0,0,0c0.8-0.7,0.9-2.7,0-2.7c-0.7,0,0.1,2.2-1.1,2.3c-1.2-0.1-0.4-2.3-1.1-2.3c-0.9,0-0.8,1.9,0,2.7
			c0,0,0,0,0,0c0,0,0,0,0,0c0.2,1.2-1.1,1-0.5,2.6c0,0-0.7,0-1.1,0l0-1.1c0-1-0.4-1.9-1.2-2.6c-0.7-0.5-1.3-1.2-1.6-2
			C6.4,10,6.2,9.3,6.1,8.5C5.9,6.9,6.5,5.2,7.5,4c0.9-1.1,2.2-1.9,3.6-2.1c0.4-0.1,0.8-0.1,1.1-0.1c0,0,0,0,0,0v0c0,0,0,0,0,0
			c0,0,0,0,0,0v0c0,0,0,0,0,0c0.4,0,0.8,0,1.1,0.1c1.4,0.2,2.7,1,3.6,2.1C18,5.2,18.5,6.9,18.4,8.5z"/>
	</g>
	<g>
		<path d="M15.1,19h-2.9h0H9.4c-0.5,0-0.9,0.3-0.9,0.7c0,0.4,0.4,0.7,0.9,0.7h2.9h0h2.9c0.5,0,0.9-0.3,0.9-0.7
			C16,19.3,15.6,19,15.1,19z"/>
	</g>
	<g>
		<path d="M15.1,21.3h-2.9h0H9.4c-0.5,0-0.9,0.4-0.9,0.9s0.4,0.9,0.9,0.9h0.2c0.1,0.1,0.2,0.2,0.3,0.2c0.3,0.3,0.7,0.6,1.2,0.8
			c0.4,0.2,0.8,0.3,1.2,0.3c0,0,0,0,0,0c0,0,0,0,0,0c0.4,0,0.8-0.1,1.2-0.3c0.4-0.3,0.9-0.6,1.2-0.8c0.1-0.1,0.2-0.2,0.3-0.2h0.2
			c0.5,0,0.9-0.4,0.9-0.9S15.6,21.3,15.1,21.3z"/>
	</g>
	<g>
		<path d="M13.7,8.3h-1.4h0h-1.4c-0.2,0-0.4,0.2-0.4,0.4c0,0.2,0.2,0.4,0.4,0.4h1.4h0h1.4c0.2,0,0.4-0.2,0.4-0.4
			C14.1,8.5,13.9,8.3,13.7,8.3z"/>
	</g>
</g>
</svg>
