<?xml version="1.0" standalone="no"?>
<!DOCTYPE svg PUBLIC "-//W3C//DTD SVG 20010904//EN"
 "http://www.w3.org/TR/2001/REC-SVG-20010904/DTD/svg10.dtd">
<svg version="1.0" xmlns="http://www.w3.org/2000/svg"
 width="547.000000pt" height="565.000000pt" viewBox="0 0 547.000000 565.000000"
 preserveAspectRatio="xMidYMid meet">
<metadata>
Created by potrace 1.15, written by Peter Selinger 2001-2017
</metadata>
<g transform="translate(0.000000,565.000000) scale(0.100000,-0.100000)"
fill="#000000" stroke="none">
<path d="M2410 5579 c-519 -59 -986 -346 -1282 -788 -390 -583 -393 -1363 -8
-1951 87 -132 130 -182 314 -365 248 -246 343 -403 418 -690 20 -75 22 -115
28 -680 6 -537 8 -606 24 -655 56 -172 178 -317 327 -388 115 -55 159 -62 387
-62 218 0 269 8 375 61 153 76 254 192 320 369 20 53 21 80 28 645 6 556 7
596 28 687 60 269 174 474 372 663 144 138 205 203 273 290 471 596 503 1453
78 2086 -372 553 -1020 853 -1682 778z m491 -278 c301 -61 559 -200 779 -421
219 -218 356 -470 422 -773 30 -138 32 -435 5 -572 -43 -210 -134 -426 -252
-596 -35 -51 -123 -148 -224 -249 -92 -91 -192 -196 -222 -235 -114 -143 -212
-332 -264 -512 -27 -92 -55 -240 -55 -290 0 -33 0 -33 -49 -33 l-50 0 -3 263
c-3 248 -4 265 -26 311 -12 27 -38 69 -57 92 l-35 42 0 202 0 202 46 44 c26
26 59 73 77 112 32 67 32 67 35 255 3 167 1 196 -17 255 -35 116 -97 199 -195
264 -101 65 -160 78 -367 78 l-179 0 -36 -33 c-64 -58 -54 -158 19 -202 27
-17 57 -21 197 -25 158 -5 167 -6 212 -33 58 -34 99 -99 106 -169 l5 -50 -47
36 c-99 75 -232 85 -351 27 -73 -36 -117 -82 -154 -161 -22 -46 -26 -69 -26
-140 1 -101 21 -155 86 -225 67 -72 126 -98 237 -103 l92 -4 0 -118 0 -117
-54 -6 c-118 -12 -250 -116 -297 -235 -22 -53 -24 -75 -27 -310 l-4 -252 -43
0 -44 0 -6 47 c-32 242 -94 429 -202 612 -78 132 -151 221 -318 386 -89 88
-187 194 -217 235 -204 278 -302 573 -302 910 0 311 80 577 252 835 241 364
607 598 1051 670 117 20 373 12 502 -14z m-326 -2253 c19 -17 27 -36 32 -75
l6 -53 -61 0 c-54 0 -63 3 -82 27 -26 33 -21 79 11 106 29 23 63 21 94 -5z
m95 -903 c56 -29 60 -51 60 -300 l0 -225 -120 0 -120 0 0 220 c0 239 3 258 56
299 32 25 83 27 124 6z m410 -870 l0 -85 -470 0 -470 0 0 85 0 85 470 0 470 0
0 -85z m0 -435 l0 -90 -470 0 -470 0 0 90 0 90 470 0 470 0 0 -90z m-32 -372
c-6 -18 -41 -63 -77 -99 -88 -88 -142 -108 -306 -116 -197 -9 -304 16 -395 95
-44 37 -100 115 -100 139 0 10 86 13 444 13 l445 0 -11 -32z"/>
</g>
</svg>
