<?xml version="1.0" encoding="utf-8"?>
<!-- Generator: Adobe Illustrator 23.1.1, SVG Export Plug-In . SVG Version: 6.00 Build 0)  -->
<svg version="1.1" id="Camada_1" xmlns="http://www.w3.org/2000/svg" xmlns:xlink="http://www.w3.org/1999/xlink" x="0px" y="0px"
	 viewBox="0 0 24.5 24.5" style="enable-background:new 0 0 24.5 24.5;" xml:space="preserve">
<g>
	<path d="M20.8,3.7c-2.3-2.3-5.3-3.5-8.6-3.5C9,0.2,6,1.4,3.7,3.7C1.4,6,0.2,9.1,0.2,12.2c0,3.2,1.2,6.3,3.5,8.5
		c2.3,2.3,5.3,3.5,8.5,3.5c0,0,0,0,0,0c3.2,0,6.2-1.3,8.5-3.5c2.3-2.2,3.6-5.4,3.5-8.5C24.3,9.1,23.1,6,20.8,3.7z M19.5,19.6
		c-1.9,1.9-4.6,3-7.3,3c-2.7,0-5.3-1.1-7.3-3c-1.9-1.9-3-4.6-3-7.3C1.9,9.5,3,6.9,5,5c1.9-1.9,4.6-3,7.3-3h0.1c2.7,0,5.3,1.1,7.3,3
		c1.9,1.9,3,4.6,3,7.3C22.6,15,21.5,17.6,19.5,19.6z"/>
	<path d="M15.2,12.5c0.4-0.7,0.6-1.6,0.6-2.3c0-0.7,0-4.2-3.8-4.2c-3.8,0-3.8,3.4-3.8,4.2c0,0.7,0.2,1.6,0.6,2.3
		c-0.8,0.5-1.3,1.3-1.3,2.3v1.5c0,1.5,1.2,2.7,2.7,2.7h3.8c1.5,0,2.7-1.2,2.7-2.7v-1.5C16.6,13.9,16,13,15.2,12.5z M12,7.1
		c2,0,2.4,1.5,2.4,2.9c0,1.5-0.4,2.7-2.4,2.7c-2.1,0-2.4-1.4-2.4-2.7C9.6,8.4,9.9,7.1,12,7.1z M15.2,16.4c0,0.8-0.7,1.4-1.5,1.4
		c0,0-3.4,0-3.4,0c-0.8,0-1.4-0.6-1.5-1.4v-1.2c0-0.6,0.4-1.1,1-1.3c0.6,0.5,1.4,0.7,2.2,0.7s1.6-0.3,2.2-0.7c0.6,0.2,1,0.7,1,1.3
		L15.2,16.4z"/>
</g>
</svg>
